<svg width="316" height="84" viewBox="0 0 316 84" fill="none" xmlns="http://www.w3.org/2000/svg">
<rect width="316" height="84" rx="14" fill="#0F2E29"/>
<path d="M151.37 29.3266C147.922 29.3266 145.247 30.2975 143.348 32.2351C141.445 34.1726 140.494 36.8963 140.494 40.4075V61.3597H145.301V40.8326C145.301 38.45 145.879 36.6647 147.043 35.4748C148.204 34.2821 149.827 33.6864 151.911 33.6864C152.714 33.6864 153.553 33.7874 154.436 33.9892V29.6891C153.714 29.446 152.694 29.3252 151.372 29.3252" fill="#F5F5F5"/>
<path d="M184.629 34.0197C181.524 30.8922 177.649 29.3271 173 29.3271C168.352 29.3271 164.476 30.8922 161.372 34.0197C158.268 37.1499 156.717 41.0748 156.717 45.7972C156.717 50.5196 158.256 54.4587 161.343 57.606C164.428 60.7533 168.315 62.3284 173 62.3284C177.686 62.3284 181.572 60.7547 184.659 57.606C187.743 54.4587 189.285 50.5209 189.285 45.7972C189.285 41.0734 187.735 37.1499 184.629 34.0197ZM181.175 54.4871C179.011 56.8085 176.285 57.9699 173 57.9699C169.715 57.9699 167.001 56.817 164.857 54.5184C162.715 52.2169 161.644 49.3084 161.644 45.7972C161.644 42.2859 162.716 39.3803 164.857 37.0788C167.001 34.7774 169.715 33.6273 173 33.6273C176.285 33.6273 179.011 34.7774 181.175 37.0788C183.34 39.3803 184.42 42.2859 184.42 45.7972C184.42 49.3084 183.34 52.1657 181.175 54.4871Z" fill="#F5F5F5"/>
<path d="M222.306 34.0197C219.202 30.8922 215.326 29.3271 210.678 29.3271C206.028 29.3271 202.152 30.8922 199.049 34.0197C195.945 37.1499 194.395 41.0748 194.395 45.7972C194.395 50.5196 195.933 54.4587 199.021 57.606C202.105 60.7533 205.992 62.3284 210.678 62.3284C215.363 62.3284 219.25 60.7547 222.337 57.606C225.421 54.4587 226.963 50.5209 226.963 45.7972C226.963 41.0734 225.41 37.1499 222.306 34.0197ZM218.852 54.4871C216.688 56.8085 213.962 57.9699 210.678 57.9699C207.393 57.9699 204.679 56.817 202.534 54.5184C200.393 52.2169 199.321 49.3084 199.321 45.7972C199.321 42.2859 200.394 39.3803 202.534 37.0788C204.679 34.7774 207.393 33.6273 210.678 33.6273C213.962 33.6273 216.688 34.7774 218.852 37.0788C221.016 39.3803 222.097 42.2859 222.097 45.7972C222.097 49.3084 221.016 52.1657 218.852 54.4871Z" fill="#F5F5F5"/>
<path d="M236.468 30.2975L234.386 34.538H247.926V30.2975H236.468ZM239.105 55.7574C237.904 54.5676 237.303 52.8035 237.303 50.4608V22H232.495V50.9455C232.495 54.4979 233.446 57.2216 235.35 59.1179C237.253 61.0158 239.948 61.9624 243.433 61.9624C244.755 61.9624 245.914 61.7606 246.917 61.3583V57.1192C246.195 57.4021 245.276 57.5443 244.152 57.5443C241.991 57.5443 240.309 56.95 239.104 55.756" fill="#F5F5F5"/>
<mask id="mask0_5290_1257" style="mask-type:luminance" maskUnits="userSpaceOnUse" x="68" y="22" width="145" height="41">
<path d="M212.988 22H68V62.3763H212.988V22Z" fill="white"/>
</mask>
<g mask="url(#mask0_5290_1257)">
<path d="M107.716 22C95.7258 22 85.9712 31.8283 85.9712 43.9091V61.5404H99.249V43.9091C99.249 39.2055 103.048 35.3781 107.716 35.3781H117.221V22H107.716Z" fill="#00DB7D"/>
<path d="M68 32.5486V45.9267H77.5049C82.1733 45.9267 85.9718 49.7539 85.9718 54.4576V61.5402H99.2496V54.4576C99.2496 42.3769 89.495 32.5486 77.5049 32.5486H68Z" fill="#00DB7D"/>
</g>
</svg>
