<svg width="317" height="71" viewBox="0 0 317 71" fill="none" xmlns="http://www.w3.org/2000/svg">
<path d="M146.453 12.8686C140.395 12.8686 135.696 14.5742 132.36 17.9777C129.017 21.3813 127.347 26.1658 127.347 32.3335V69.1385H135.79V33.0803C135.79 28.895 136.807 25.7588 138.851 23.6687C140.891 21.5736 143.741 20.5272 147.402 20.5272C148.812 20.5272 150.286 20.7046 151.838 21.0591V13.5054C150.569 13.0785 148.777 12.8662 146.455 12.8662" fill="#F5F5F5"/>
<path d="M204.874 21.1133C199.421 15.6196 192.613 12.8704 184.448 12.8704C176.282 12.8704 169.473 15.6196 164.021 21.1133C158.568 26.612 155.844 33.5065 155.844 41.8019C155.844 50.0972 158.549 57.0168 163.971 62.5454C169.389 68.0739 176.217 70.8407 184.448 70.8407C192.678 70.8407 199.505 68.0763 204.928 62.5454C210.346 57.0168 213.055 50.0997 213.055 41.8019C213.055 33.5041 210.331 26.612 204.874 21.1133ZM198.807 57.0666C195.006 61.1445 190.218 63.1845 184.448 63.1845C178.677 63.1845 173.909 61.1594 170.142 57.1217C166.38 53.0787 164.499 47.9696 164.499 41.8019C164.499 35.6339 166.383 30.5299 170.142 26.4871C173.909 22.4443 178.677 20.4241 184.448 20.4241C190.218 20.4241 195.006 22.4443 198.807 26.4871C202.61 30.5299 204.508 35.6339 204.508 41.8019C204.508 47.9696 202.61 52.9889 198.807 57.0666Z" fill="#F5F5F5"/>
<path d="M271.057 21.1138C265.604 15.6201 258.796 12.8708 250.63 12.8708C242.463 12.8708 235.655 15.6201 230.204 21.1138C224.751 26.6125 222.027 33.507 222.027 41.8024C222.027 50.0977 224.73 57.0173 230.153 62.5458C235.571 68.0744 242.399 70.8412 250.63 70.8412C258.861 70.8412 265.688 68.0768 271.111 62.5458C276.528 57.0173 279.237 50.1002 279.237 41.8024C279.237 33.5046 276.51 26.6125 271.057 21.1138ZM264.99 57.0671C261.187 61.145 256.399 63.185 250.63 63.185C244.86 63.185 240.092 61.1599 236.325 57.1222C232.563 53.0792 230.681 47.9701 230.681 41.8024C230.681 35.6344 232.565 30.5304 236.325 26.4876C240.092 22.4448 244.86 20.4245 250.63 20.4245C256.399 20.4245 261.187 22.4448 264.99 26.4876C268.791 30.5304 270.689 35.6344 270.689 41.8024C270.689 47.9701 268.791 52.9894 264.99 57.0671Z" fill="#F5F5F5"/>
<path d="M295.936 14.5755L292.279 22.0245H316.064V14.5755H295.936ZM300.569 59.2988C298.46 57.2087 297.403 54.1098 297.403 49.9946V0H288.958V50.846C288.958 57.0862 290.628 61.8707 293.972 65.2018C297.315 68.5356 302.049 70.1985 308.171 70.1985C310.493 70.1985 312.53 69.844 314.292 69.1373V61.6909C313.023 62.1879 311.408 62.4376 309.435 62.4376C305.637 62.4376 302.684 61.3937 300.567 59.2962" fill="#F5F5F5"/>
<mask id="mask0_1191_1399" style="mask-type:luminance" maskUnits="userSpaceOnUse" x="0" y="0" width="255" height="71">
<path d="M254.687 0H0V70.9256H254.687V0Z" fill="white"/>
</mask>
<g mask="url(#mask0_1191_1399)">
<path d="M69.7667 0C48.7047 0 31.5696 17.2646 31.5696 38.4858V69.4573H54.8936V38.4858C54.8936 30.2233 61.5661 23.5002 69.7667 23.5002H86.4631V0H69.7667Z" fill="#00DB7D"/>
<path d="M0 18.5287V42.0289H16.6964C24.897 42.0289 31.5695 48.7518 31.5695 57.0144V69.4557H54.8935V57.0144C54.8935 35.7933 37.7584 18.5287 16.6964 18.5287H0Z" fill="#00DB7D"/>
</g>
</svg>
